<?xml version="1.0" encoding="utf-8"?>
<!-- Generator: Adobe Illustrator 27.1.0, SVG Export Plug-In . SVG Version: 6.00 Build 0)  -->
<svg version="1.1" id="Objects" xmlns="http://www.w3.org/2000/svg" xmlns:xlink="http://www.w3.org/1999/xlink" x="0px" y="0px"
	 viewBox="0 0 1041.4 1140" style="enable-background:new 0 0 1041.4 1140;" xml:space="preserve">
<style type="text/css">
	.st0{display:none;}
	.st1{display:inline;fill:#FFFFFF;}
	.st2{fill:#DDBD8A;}
	.st3{fill:#CCA46A;}
	.st4{fill:#161718;}
</style>
<g class="st0">
	<path class="st1" d="M3537.9,1140.4l96.5-44.3l-98.7-196.3c-12.6-24.8-37.4-41.5-65.2-42.2c-28.8-0.7-55,15-68,40.6l-90.3,178
		l-88.7-176.4c-12.6-24.8-37.4-41.5-65.2-42.2c-28.8-0.7-55,15-68,40.6L2817,1436.6c-13.3,26.1-2.8,58.1,23.3,71.3
		c26.1,13.3,58.1,2.8,71.3-23.3l244.8-482.3l96,191.6l-123.2,242.7c-13.3,26.1-2.8,58.1,23.3,71.3c26.1,13.3,58.1,2.8,71.3-23.3
		l244.8-482.3L3537.9,1140.4z"/>
	<path class="st1" d="M3568.7,1140.4c-5.1,2.3-10.2,4.6-15.3,6.9c-4.1,1.8-6.5,5.3-6.8,9c-0.3,1.8-0.1,3.8,0.7,5.7
		c2.3,5.7,8.8,7.9,14.7,5.1c20.8-9.5,41.5-19.1,62.2-28.6c5.1-2.3,10.2-4.6,15.3-6.9c4.1-1.8,6.5-5.3,6.8-9c0.3-1.8,0.1-3.8-0.7-5.7
		c-2.3-5.7-8.8-7.9-14.7-5.1C3610.2,1121.4,3589.5,1130.9,3568.7,1140.4z"/>
	<path class="st1" d="M3744.1,1396.9c-3.4-0.5-6.5,1.9-7,5.3c-0.5,3.4,1.9,6.5,5.3,7c22.7,3,39.9,22.6,39.9,45.5v0.9
		c0,25.3-20.6,45.9-45.9,45.9h-339.3c-25.3,0-45.9-20.6-45.9-45.9v-0.9c0-25.3,20.6-45.9,45.9-45.9h285.4c0.1,0,0.2,0,0.4,0
		c0.1,0,0.1,0,0.2,0c0.7,0,1.4,0,2.1-0.1c5.9-0.1,12.6-0.3,18.9-4.5c10-6.7,15-19.4,12.3-31.5c-2.1-9.4-8-17-16-20.9
		c-1.1-4.9-2.4-9.8-3.3-14.7c-2.2-12.2-2.5-24.5-1.8-36.8c0.8-15.5,4.1-30.6,8.5-45.5c3.5-11.8,8.3-23.2,13.5-34.2
		c0.8-1.2,1.4-2.4,1-3.6c-0.7-2-2.3-2.7-4.1-3c-16.1-2.9-28.2-12.3-39.2-23.5c-12.2-12.4-21.7-26.8-29.8-42.1
		c-1.9-3.7-3.7-4.2-7.5-2.4c-20.6,9.5-41.2,19-61.8,28.5c-2.8,1.3-3.8,3.7-2.6,6.5c4.3,10.3,7.4,20.9,9.7,31.7
		c3,14,4.2,28.2,2.1,42.4c-1.1,7.4-3.5,14.3-7.1,20.9c-2,3.7-0.6,6.3,3.5,7.2c8.3,1.9,16.3,4.7,24.2,7.8c9.3,3.6,18.3,7.9,27,12.7
		c13.7,7.6,26.3,16.7,37.6,27.6c7.3,7,12.5,13.3,18.5,21.4c-0.3,0.4-0.5,0.9-0.6,1.5c-0.9,3.3,1,6.7,4.3,7.6
		c5.9,1.7,10.4,6.8,11.9,13.5c1.6,7.2-1.3,14.7-7.1,18.6c-3.3,2.2-7.3,2.3-12.3,2.4c-0.6,0-1.2,0-1.8,0c0,0-0.1,0-0.1,0h-285.9
		c-32.2,0-58.3,26.1-58.3,58.2v0.9c0,32.1,26.2,58.2,58.3,58.2h339.3c32.2,0,58.3-26.1,58.3-58.2v-0.9
		C3794.7,1425.6,3772.9,1400.8,3744.1,1396.9z M3690,1351.2c-4.7-10.2-9.2-20.8-13.8-31c-5.5-12.1-11.1-24.1-16.6-36.2
		c-5.3-11.7-10.8-23.4-16.1-35.2c-1-2.3-2.3-3.6-4.9-4.1c-4.8-0.9-8.5-4.8-9-8.9c-0.6-4.8,1.6-9.3,5.7-11.6c4.2-2.3,9.4-1.5,12.9,2
		c3.4,3.4,4.2,8.8,1.6,12.8c-1.6,2.5-1.4,4.7-0.2,7.2c6.2,12.7,11.9,25.7,17.8,38.6c8.3,18,16.7,36,24.8,54.1
		c1.7,3.8,3.8,7.7,5.6,11.5c-0.7-0.2-1.3-0.5-2-0.7C3693.6,1349.4,3691.5,1350,3690,1351.2z"/>
	<path class="st1" d="M3376.7,1481.9h8l4.9-11.9h18.4l4.6,11.9h9.3l-22.3-52.6h-0.5L3376.7,1481.9z M3405.2,1463.1h-12.8l6.5-16
		L3405.2,1463.1z"/>
	<polygon class="st1" points="3431.1,1431.4 3431.1,1481.9 3464.1,1481.9 3464.1,1474.1 3439.2,1474.1 3439.2,1431.4 	"/>
	<rect x="3475.5" y="1431.4" class="st1" width="8.1" height="50.5"/>
	<path class="st1" d="M3515.8,1481.9h8l4.9-11.9h18.4l4.6,11.9h9.3l-22.3-52.6h-0.5L3515.8,1481.9z M3544.3,1463.1h-12.8l6.5-16
		L3544.3,1463.1z"/>
	<path class="st1" d="M3566.6,1481.9h42.7v-7.8h-28.8l28.4-42.7h-29.4c-0.9,0-1.5-0.1-1.8-0.2c-0.3-0.1-0.4-0.6-0.4-1.4v-1h-7.5v5.8
		c0,1.3,0.6,2.4,1.9,3.3c1.3,0.9,2.7,1.3,4.2,1.3h18.7c-2.7,4-7.5,11.4-14.6,22.3C3571.6,1474.3,3567.1,1481.1,3566.6,1481.9z"/>
	<path class="st1" d="M3644.5,1438.9c1.7,0,3.7,0.3,6,0.9c2.3,0.6,4.1,1.3,5.5,2.2l2.6-7.5c-2-1.1-4.3-2-6.9-2.7
		c-2.6-0.7-5.4-1-8.3-1c-4.7,0-9.1,1-13,3.1s-7.1,5.2-9.4,9.2c-2.3,4.1-3.5,8.9-3.5,14.6c0,4.7,1.1,8.9,3.3,12.7
		c2.2,3.7,5.3,6.6,9.3,8.8c4,2.1,8.7,3.2,14,3.2c2.9,0,6-0.5,9.5-1.6c3.4-1.1,5.9-2.3,7.2-3.6v-20.7h-17.6v7.8h9.5v8.4
		c-1,0.6-2.3,1-3.7,1.3c-1.5,0.3-3,0.5-4.6,0.5c-3.6,0-6.8-0.7-9.6-2.2c-2.8-1.4-5-3.5-6.5-6.1c-1.5-2.6-2.3-5.6-2.3-9.1
		c0-5.7,1.7-10.2,5-13.4C3634.1,1440.5,3638.7,1438.9,3644.5,1438.9z"/>
	<path class="st1" d="M3690.8,1429.3l-22.3,52.6h8l4.9-11.9h18.4l4.6,11.9h9.3l-22.3-52.6H3690.8z M3684.1,1463.1l6.5-16l6.3,16
		H3684.1z"/>
	<path class="st1" d="M3731,1464.3h7.3h0.8l11.4,17.5h9.4l-12.3-19.5c2.8-1.4,4.9-3.5,6.2-6.1c1.3-2.7,2-5.5,2-8.6
		c0-5.1-1.7-9.1-5.1-11.9c-3.4-2.9-7.9-4.3-13.6-4.3h-14.2v50.5h8.1V1464.3z M3731,1439.1h7.5c2.2,0,3.9,0.5,5.3,1.4
		c1.3,0.9,2.3,2.1,2.8,3.4c0.6,1.3,0.8,2.6,0.8,3.9c0,2.2-0.7,4.2-2.2,6c-1.5,1.8-3.8,2.7-7,2.7h-7.2V1439.1z"/>
</g>
<g>
	<path class="st2" d="M91.7,216.5C41.3,245.6,0,317.1,0,375.4l0,389.2c0,58.3,41.3,129.8,91.7,158.9l337.1,194.6
		c50.5,29.1,133,29.1,183.5,0l337.1-194.6c50.5-29.1,91.7-100.6,91.7-158.9l0-389.2c0-58.3-41.3-129.8-91.7-158.9L612.3,21.9
		c-50.5-29.1-133-29.1-183.5,0L91.7,216.5z"/>
	<path class="st3" d="M1041.8,709.4l-0.1-35.3c0.1-0.4,0.1-0.7,0-1.1l-0.5-193.5C852,310.7,811.4,293.4,783.7,292.8
		c-19.1-0.4-37,6.3-50.7,18.4c-17.5,1.5-35.9,2.5-43.8,2.3c-1-1.9-2-3.8-2.9-5.7c-1.1-0.6-2.2-1.2-3.2-1.9c-0.1-0.1-0.2-0.1-0.3-0.2
		c-0.2,0-0.5,0-0.7,0c-7.8,0-15.3-0.7-22.6-1.9c1.6,7.9,2.7,16,3,24.2c1.1,23.6-5.2,46.1-16.6,65.8
		c-106.6-89.5-136.8-100.5-158.9-101c-20.6-0.5-39.9,7.5-53.9,21.4c-1.2-0.1-2.4-0.2-3.6-0.2c-15.2-0.4-29.6,3.9-41.7,11.6
		c-0.2-6.9,0.3-13.7,1.3-20.4c-7.7,8.8-16.6,16.7-26.3,23.5c-1.3-0.7-2.5-1.4-3.9-2c-9.2-4.4-32.3-12.5-34.9-2.9
		c-2.6,9.5-19.3,46.5-26.7,62.2c-7.4,15.7-38.6,52-39.9,53.2c-1.3,1.3-6.7,16.5-9,31.2c-1.9,12.5-15.9,47.7-23.4,65.6
		c-9.1,4.3-18.6,7.7-28.3,9.9c-0.2,0.2-0.3,0.4-0.5,0.7c-3.1,22.5-12.7,43.4-26.6,61.1c-1.8,17.4-7.5,33.9-16.1,48.7
		c0.2,2.3,0.4,4.7,0.5,7.1c0.9,19.2-3.2,37.7-10.8,54.6c-0.5,16.9-4.8,33-11.8,47.9c-4.6,7-8,12.6-8.8,15.2c-0.1,0.3-0.2,0.7-0.3,1
		c-14.5,22.1-35.5,40.1-59.5,51.5c-2.5,16.1-10.8,30.7-22.5,41.9c14.7,20.1,32.4,37.1,51.5,48.1l49.3,28.5c0,0,0,0,0,0l287.7,166.1
		c15.8,9.1,34.7,15.4,54.8,18.8c4,0.7,8.1,1.3,12.2,1.7c8.2,0.9,16.5,1.4,24.8,1.4c16.6,0,33.3-1.8,48.9-5.5
		c15.6-3.6,30.2-9.1,42.9-16.4l337.1-194.6c50.5-29.1,91.7-100.6,91.7-158.9V709L1041.8,709.4z"/>
	<path class="st4" d="M853.3,480.9l-98.7-196.3c-12.6-24.8-37.4-41.5-65.2-42.2c-28.8-0.7-55,15-68,40.6L348.2,821.4
		c-13.3,26.1-2.8,58.1,23.3,71.3c26.1,13.3,58.1,2.8,71.3-23.3l244.8-482.3l69.2,138.1"/>
	<path class="st4" d="M772.4,532.1c5.1-2.3,10.2-4.6,15.3-6.9c20.8-9.5,41.5-19.1,62.2-28.6c5.9-2.7,12.4-0.5,14.7,5.1
		c0.8,2,1,3.9,0.7,5.7c-0.4,3.7-2.7,7.1-6.8,9c-5.1,2.3-10.2,4.6-15.3,6.9c-20.8,9.5-41.5,19.1-62.2,28.6
		c-5.9,2.7-12.4,0.5-14.7-5.1c-0.8-2-1-3.9-0.7-5.7C765.9,537.4,768.3,533.9,772.4,532.1z"/>
	<path class="st4" d="M929.6,775.2c-0.5-0.1-0.8-0.1-1.4-0.1c-1.6,0-1.3,5.2-0.1,6.3c0.1,0.1,0.5,0.1,0.6,0.2
		c27.3,3.6,47.8,27.1,47.8,54.5v0.9c0,30.3-24.7,55-55.1,55H582.2c-30.4,0-55.1-24.7-55.1-55v-0.9c0-30.3,24.7-55,55.1-55H868l0.2,0
		l1.8-0.1c5.3-0.1,13.9-1.9,21.1-5.6c5-2.7,14.9-10,21.9-17.7c7.4-8.3,8.2-12.5,7.3-16.9c0,0,0,0-0.7-3.2
		c-1.2-5.3-2.6-10.5-3.6-15.8c-2.2-12.2-2.5-24.5-1.8-36.8c0.8-15.5,4.1-30.6,8.5-45.5c3.5-11.8,8.3-23.2,13.5-34.2
		c0.8-1.2,1.4-2.4,1-3.6c-0.7-2-2.3-2.7-4.1-3c-16.1-2.9-28.2-12.3-39.2-23.5c-12.2-12.4-21.7-26.8-29.8-42.1
		c-1.9-3.7-3.7-4.2-7.5-2.4c-20.6,9.5-41.2,19-61.8,28.5c-2.8,1.3-3.8,3.7-2.6,6.5c4.3,10.3,7.4,20.9,9.7,31.7
		c3,14,4.2,28.2,2.1,42.4c-1.1,7.4-3.5,14.3-7.1,20.9c-2,3.7-0.6,6.3,3.5,7.2c8.3,1.9,16.3,4.7,24.2,7.8c9.3,3.6,18.3,7.9,27,12.7
		c13.7,7.6,26.3,16.7,37.6,27.6c7.8,7.5,13.2,14.1,19.7,23.1c1.6,2.3,1.5,2.1,1.7,2.4c0,0,0,0.1,0.1,0.1l0.5,1.1
		c0.8,3.7-2.4,8.7-10.1,15.3c-4.7,4-10.8,10-18.6,13.6c-3.8,1.8-7.2,2.3-12.5,2.9l-1.6,0l-0.1,0h-286c-34,0-61.6,27.6-61.6,61.5v0.9
		c0,33.9,27.6,61.5,61.6,61.5h339.3c34,0,61.6-27.6,61.6-61.5v-0.9C983.1,805.4,960.1,779.2,929.6,775.2z M895.1,705
		c-5.5-12.1-11.1-24.1-16.6-36.2c-5.3-11.7-10.8-23.4-16.1-35.2c-1-2.3-2.3-3.6-4.9-4.1c-4.8-0.9-8.5-4.8-9-8.9
		c-0.6-4.8,1.6-9.3,5.7-11.6c4.2-2.3,9.4-1.5,12.9,2c3.4,3.4,4.2,8.8,1.6,12.8c-1.6,2.5-1.4,4.7-0.2,7.2
		c6.2,12.7,11.9,25.7,17.8,38.6c6.9,14.9,13.8,29.8,20.6,44.8L864.6,631l33.7,80.9C897.2,709.7,896.2,707.3,895.1,705z"/>
	<path class="st4" d="M546.8,492.2L442.4,284.6c-12.6-24.8-37.4-41.5-65.2-42.2c-28.8-0.7-55,15-68,40.6L36,821.4
		c-13.3,26.1-2.8,58.1,23.3,71.3c26.1,13.3,58.1,2.8,71.3-23.3l244.8-482.3l96.5,192.7"/>
	<g>
		<path class="st4" d="M570.3,866.9v-60.7h13.5v60.7H570.3z M579.5,866.9v-11.9h15c3.7,0,6.9-0.7,9.6-2.2c2.8-1.5,4.9-3.6,6.4-6.4
			c1.5-2.8,2.2-6.1,2.2-10c0-3.8-0.8-7.1-2.3-9.9c-1.5-2.8-3.6-4.9-6.4-6.4c-2.7-1.5-5.9-2.2-9.6-2.2H579v-11.8h15.7
			c4.6,0,8.8,0.7,12.7,2.2s7.3,3.6,10.1,6.3c2.9,2.7,5.1,5.9,6.7,9.6c1.6,3.7,2.4,7.8,2.4,12.3c0,4.4-0.8,8.5-2.4,12.2
			c-1.6,3.7-3.8,6.9-6.7,9.6c-2.9,2.7-6.2,4.8-10.1,6.3c-3.9,1.5-8.1,2.2-12.6,2.2H579.5z"/>
		<path class="st4" d="M636,866.9v-60.7h13.5v60.7H636z M646.4,817.8v-11.6h32.9v11.6H646.4z M646.4,841.6v-11.3h30.3v11.3H646.4z
			 M646.4,866.9v-11.7h33.3v11.7H646.4z"/>
		<path class="st4" d="M686.5,857.5l30.5-41.9h16.3l-30.6,41.9H686.5z M686.5,866.9v-9.5l8.9-2.2h37.2v11.6H686.5z M688.2,817.8
			v-11.6h45.2v9.4l-9.1,2.2H688.2z"/>
		<path class="st4" d="M742.9,866.9v-60.7h13.5v60.7H742.9z"/>
		<path class="st4" d="M797.6,867.9c-4.4,0-8.6-0.8-12.4-2.4c-3.9-1.6-7.2-3.8-10.1-6.7c-2.9-2.8-5.1-6.2-6.8-10
			c-1.6-3.8-2.5-7.9-2.5-12.3c0-4.4,0.8-8.5,2.5-12.3c1.7-3.8,4-7.1,6.9-9.9c3-2.8,6.4-5,10.4-6.6c4-1.6,8.2-2.4,12.7-2.4
			c5.2,0,10,0.9,14.2,2.8c4.3,1.9,7.8,4.5,10.6,7.8l-9.2,9.2c-2-2.5-4.2-4.4-6.9-5.7c-2.6-1.3-5.6-1.9-8.9-1.9
			c-3.6,0-6.7,0.8-9.5,2.4c-2.8,1.6-5,3.8-6.6,6.6c-1.6,2.8-2.4,6.1-2.4,9.9c0,3.8,0.8,7.1,2.3,10c1.5,2.9,3.7,5.1,6.4,6.7
			c2.7,1.6,5.8,2.4,9.3,2.4c3.6,0,6.6-0.7,9.1-2c2.5-1.3,4.4-3.3,5.8-5.8c1.3-2.6,2-5.7,2-9.3l8.9,6l-27.1-0.4v-11.4h31.9v2
			c0,7.3-1.3,13.4-3.9,18.4c-2.6,5-6.2,8.7-10.8,11.2C809,866.6,803.7,867.9,797.6,867.9z"/>
		<path class="st4" d="M837.4,866.9v-60.7h9.5l4,12.1v48.6H837.4z M879.3,866.9l-35.8-45.8l3.4-14.9l35.8,45.8L879.3,866.9z
			 M879.3,866.9l-3.6-12.1v-48.6h13.5v60.7H879.3z"/>
		<path class="st4" d="M918.7,867.9c-5,0-9.3-0.8-12.9-2.5s-6.9-4.1-9.8-7.4l8.8-8.7c1.9,2.2,4.1,4,6.5,5.2c2.4,1.2,5.1,1.8,8.3,1.8
			c2.9,0,5.1-0.5,6.7-1.5c1.6-1,2.4-2.5,2.4-4.3c0-1.7-0.5-3-1.5-4s-2.4-1.9-4.1-2.7c-1.7-0.7-3.6-1.5-5.6-2.2
			c-2-0.7-4.1-1.5-6.1-2.4c-2-0.9-3.9-2-5.5-3.4c-1.7-1.3-3.1-3-4.1-5.1c-1-2-1.5-4.6-1.5-7.7c0-3.7,0.9-6.9,2.7-9.6
			c1.8-2.7,4.3-4.7,7.5-6.1c3.2-1.4,6.9-2.1,11.1-2.1c4.2,0,8.1,0.7,11.7,2.2c3.5,1.5,6.4,3.5,8.7,6.1l-8.8,8.7
			c-1.8-1.9-3.7-3.3-5.5-4.2c-1.9-0.9-4-1.4-6.3-1.4c-2.4,0-4.2,0.4-5.6,1.3c-1.4,0.9-2.1,2.2-2.1,3.8c0,1.5,0.5,2.8,1.5,3.7
			c1,0.9,2.4,1.8,4.1,2.5c1.7,0.7,3.6,1.4,5.6,2.1s4.1,1.5,6.1,2.4c2,0.9,3.9,2.1,5.5,3.5c1.7,1.4,3.1,3.2,4.1,5.3
			c1,2.2,1.5,4.8,1.5,8c0,5.8-2.1,10.3-6.2,13.6C931.7,866.2,926,867.9,918.7,867.9z"/>
	</g>
</g>
</svg>
